<svg width="1024" height="1024" viewBox="0 0 1024 1024" fill="none" xmlns="http://www.w3.org/2000/svg">
  <rect width="1024" height="1024" rx="200" fill="#5D4AC2"/>
  <path d="M256 320 C256 285 285 256 320 256 L704 256 C739 256 768 285 768 320 L768 384 C768 419 739 448 704 448 L448 448 C413 448 384 477 384 512 C384 547 413 576 448 576 L640 576 C675 576 704 605 704 640 L704 704 C704 739 675 768 640 768 L320 768 C285 768 256 739 256 704 L256 320 Z" fill="white"/>
  <circle cx="780" cy="780" r="72" fill="#00D4B1"/>
</svg>
